# xmcd
#
# Track frame offsets:
#	150
#	16517
#	30713
#	51907
#	68961
#	86265
#	102938
#	119412
#	134065
#	149347
#
# Disc length: 2252 seconds
#
# Revision: 0
# Processed by: cddbd v1.5.2PL0 Copyright (c) Steve Scherf et al.
# Submitted via: EasyCDDAExtractor 11.1.0.1
#
DISCID=8708ca0a
DTITLE=Red Truck - 2 weeks of vacation
DYEAR=1900
DGENRE=country
TTITLE0=Flower of my heart
TTITLE1=Sweet darling
TTITLE2=My dream
TTITLE3=Will you still love me
TTITLE4=2 weeks of vacation
TTITLE5=Love at first sight
TTITLE6=Crazy arms
TTITLE7=We all get lucky sometimes
TTITLE8=The date
TTITLE9=Mama
EXTD=
EXTT0=
EXTT1=
EXTT2=
EXTT3=
EXTT4=
EXTT5=
EXTT6=
EXTT7=
EXTT8=
EXTT9=
PLAYORDER=
